<svg width="17" height="19" viewBox="0 0 17 19" fill="none" xmlns="http://www.w3.org/2000/svg">
<path fill-rule="evenodd" clip-rule="evenodd" d="M8.49999 7.34929C9.45477 7.34929 10.3704 6.97001 11.0456 6.29488C11.7207 5.61975 12.1 4.70407 12.1 3.74929C12.1 2.79451 11.7207 1.87884 11.0456 1.20371C10.3704 0.528577 9.45477 0.149292 8.49999 0.149292C7.54522 0.149292 6.62954 0.528577 5.95441 1.20371C5.27928 1.87884 4.89999 2.79451 4.89999 3.74929C4.89999 4.70407 5.27928 5.61975 5.95441 6.29488C6.62954 6.97001 7.54522 7.34929 8.49999 7.34929ZM3.39865 18.1493C1.57685 18.1493 0.0422353 16.6179 0.739406 14.9347C1.16155 13.9156 1.78029 12.9896 2.5603 12.2096C3.34031 11.4296 4.26632 10.8108 5.28545 10.3887C6.30459 9.96656 7.39689 9.74929 8.49999 9.74929C9.6031 9.74929 10.6954 9.96656 11.7145 10.3887C12.7337 10.8108 13.6597 11.4296 14.4397 12.2096C15.2197 12.9896 15.8384 13.9156 16.2606 14.9347C16.9578 16.6179 15.4231 18.1493 13.6013 18.1493H3.39865Z" fill="#F53838"/>
</svg>
